<svg width="155" height="42" viewBox="0 0 155 42" fill="none" xmlns="http://www.w3.org/2000/svg">
<path d="M21.024 23L21 6.2H17.784L11.592 16.64L5.304 6.2H2.088V23H5.736V13.136L10.68 21.224H12.408L17.352 12.944L17.376 23H21.024ZM29.9254 9.896C27.8614 9.896 25.7734 10.448 24.3574 11.456L25.7014 14.072C26.6374 13.328 28.0534 12.872 29.4214 12.872C31.4374 12.872 32.3974 13.808 32.3974 15.416H29.4214C25.4854 15.416 23.8774 17 23.8774 19.28C23.8774 21.512 25.6774 23.192 28.7014 23.192C30.5974 23.192 31.9414 22.568 32.6374 21.392V23H36.1414V15.632C36.1414 11.72 33.8614 9.896 29.9254 9.896ZM29.6374 20.672C28.3174 20.672 27.5254 20.048 27.5254 19.112C27.5254 18.248 28.0774 17.6 29.8294 17.6H32.3974V18.92C31.9654 20.096 30.8854 20.672 29.6374 20.672ZM45.5378 23.192C48.2498 23.192 50.3858 21.992 51.3218 19.928L48.4178 18.344C47.7218 19.592 46.6898 20.12 45.5138 20.12C43.6178 20.12 42.1298 18.8 42.1298 16.544C42.1298 14.288 43.6178 12.968 45.5138 12.968C46.6898 12.968 47.7218 13.52 48.4178 14.744L51.3218 13.184C50.3858 11.072 48.2498 9.896 45.5378 9.896C41.3378 9.896 38.3378 12.656 38.3378 16.544C38.3378 20.432 41.3378 23.192 45.5378 23.192ZM64.398 10.088H51.942V13.16H56.31V23H60.03V13.16H64.398V10.088ZM78.4067 16.592C78.4067 12.44 75.4787 9.896 71.6867 9.896C67.7507 9.896 64.7987 12.68 64.7987 16.544C64.7987 20.384 67.7027 23.192 72.1667 23.192C74.4947 23.192 76.2947 22.472 77.4947 21.104L75.5027 18.944C74.6147 19.784 73.6307 20.192 72.2627 20.192C70.2947 20.192 68.9267 19.208 68.5667 17.6H78.3347C78.3587 17.288 78.4067 16.88 78.4067 16.592ZM71.7107 12.728C73.3907 12.728 74.6147 13.784 74.8787 15.416H68.5187C68.7827 13.76 70.0067 12.728 71.7107 12.728ZM88.8846 9.896C87.1566 9.896 85.7646 10.448 84.8286 11.576V10.088H81.2526V27.656H84.9966V21.632C85.9566 22.688 87.2766 23.192 88.8846 23.192C92.5086 23.192 95.3166 20.6 95.3166 16.544C95.3166 12.488 92.5086 9.896 88.8846 9.896ZM88.2366 20.12C86.3646 20.12 84.9486 18.776 84.9486 16.544C84.9486 14.312 86.3646 12.968 88.2366 12.968C90.1086 12.968 91.5246 14.312 91.5246 16.544C91.5246 18.776 90.1086 20.12 88.2366 20.12ZM120.002 19.832V6.2H107.09L106.898 11.456C106.73 16.16 106.178 19.76 103.994 19.832H103.322L103.298 26.48H106.898V23H118.754V26.48H122.354V19.832H120.002ZM110.33 11.816L110.402 9.368H116.161V19.832H108.65C109.802 18.464 110.186 15.392 110.33 11.816ZM137.071 16.592C137.071 12.44 134.143 9.896 130.351 9.896C126.415 9.896 123.463 12.68 123.463 16.544C123.463 20.384 126.367 23.192 130.831 23.192C133.159 23.192 134.959 22.472 136.159 21.104L134.167 18.944C133.279 19.784 132.295 20.192 130.927 20.192C128.959 20.192 127.591 19.208 127.231 17.6H136.999C137.023 17.288 137.071 16.88 137.071 16.592ZM130.375 12.728C132.055 12.728 133.279 13.784 133.543 15.416H127.183C127.447 13.76 128.671 12.728 130.375 12.728ZM141.167 10.088L140.975 15.272C140.855 17.72 140.711 19.952 138.935 19.952C138.767 19.952 138.575 19.928 138.383 19.904L138.191 22.976C138.935 23.168 139.559 23.264 140.135 23.264C143.327 23.264 144.071 20.048 144.263 15.44L144.383 13.16H148.463V23H152.207V10.088H141.167Z" fill="#1A1A1A"/>
<path d="M6.853 33.214L4.356 37.383L1.903 33.214H1.111V39H1.826V34.413L4.169 38.296H4.521L6.864 34.424V39H7.579V33.214H6.853ZM13.5524 33.17C12.6394 33.17 11.7814 33.456 11.1984 33.951L11.5504 34.534C12.0234 34.116 12.7274 33.852 13.4754 33.852C14.5534 33.852 15.1144 34.391 15.1144 35.381V35.733H13.2774C11.6164 35.733 11.0444 36.481 11.0444 37.372C11.0444 38.373 11.8474 39.055 13.1564 39.055C14.1134 39.055 14.7954 38.692 15.1474 38.098V39H15.8954V35.414C15.8954 33.918 15.0484 33.17 13.5524 33.17ZM13.2774 38.439C12.3534 38.439 11.8144 38.021 11.8144 37.35C11.8144 36.756 12.1774 36.316 13.2994 36.316H15.1144V37.262C14.8064 38.021 14.1574 38.439 13.2774 38.439ZM22.1545 39.055C23.1335 39.055 23.9585 38.659 24.4205 37.911L23.8375 37.515C23.4415 38.098 22.8255 38.362 22.1545 38.362C20.8895 38.362 19.9655 37.471 19.9655 36.107C19.9655 34.754 20.8895 33.852 22.1545 33.852C22.8255 33.852 23.4415 34.127 23.8375 34.71L24.4205 34.314C23.9585 33.555 23.1335 33.17 22.1545 33.17C20.4275 33.17 19.1735 34.38 19.1735 36.107C19.1735 37.834 20.4275 39.055 22.1545 39.055ZM31.6553 33.214H26.4963V33.907H28.6853V39H29.4663V33.907H31.6553V33.214ZM39.347 36.107C39.347 34.369 38.17 33.17 36.542 33.17C34.914 33.17 33.715 34.391 33.715 36.107C33.715 37.823 34.947 39.055 36.751 39.055C37.664 39.055 38.467 38.725 38.984 38.109L38.544 37.603C38.104 38.109 37.477 38.362 36.773 38.362C35.508 38.362 34.584 37.559 34.496 36.349H39.336C39.336 36.261 39.347 36.173 39.347 36.107ZM36.542 33.841C37.675 33.841 38.5 34.633 38.599 35.766H34.496C34.595 34.633 35.42 33.841 36.542 33.841ZM45.8168 33.17C44.8598 33.17 44.0568 33.588 43.5838 34.358V33.214H42.8358V41.134H43.6168V37.911C44.1008 38.659 44.8928 39.055 45.8168 39.055C47.4668 39.055 48.6988 37.867 48.6988 36.107C48.6988 34.358 47.4668 33.17 45.8168 33.17ZM45.7618 38.362C44.5298 38.362 43.6058 37.46 43.6058 36.107C43.6058 34.765 44.5298 33.852 45.7618 33.852C46.9828 33.852 47.9178 34.765 47.9178 36.107C47.9178 37.46 46.9828 38.362 45.7618 38.362ZM54.0956 33.17C53.1826 33.17 52.3246 33.456 51.7416 33.951L52.0936 34.534C52.5666 34.116 53.2706 33.852 54.0186 33.852C55.0966 33.852 55.6576 34.391 55.6576 35.381V35.733H53.8206C52.1596 35.733 51.5876 36.481 51.5876 37.372C51.5876 38.373 52.3906 39.055 53.6996 39.055C54.6566 39.055 55.3386 38.692 55.6906 38.098V39H56.4386V35.414C56.4386 33.918 55.5916 33.17 54.0956 33.17ZM53.8206 38.439C52.8966 38.439 52.3576 38.021 52.3576 37.35C52.3576 36.756 52.7206 36.316 53.8426 36.316H55.6576V37.262C55.3496 38.021 54.7006 38.439 53.8206 38.439ZM64.9166 39H65.6976V36.448H69.3386V39H70.1196V33.214H69.3386V35.777H65.6976V33.214H64.9166V39ZM76.0904 33.17C75.1774 33.17 74.3194 33.456 73.7364 33.951L74.0884 34.534C74.5614 34.116 75.2654 33.852 76.0134 33.852C77.0914 33.852 77.6524 34.391 77.6524 35.381V35.733H75.8154C74.1544 35.733 73.5824 36.481 73.5824 37.372C73.5824 38.373 74.3854 39.055 75.6944 39.055C76.6514 39.055 77.3334 38.692 77.6854 38.098V39H78.4334V35.414C78.4334 33.918 77.5864 33.17 76.0904 33.17ZM75.8154 38.439C74.8914 38.439 74.3524 38.021 74.3524 37.35C74.3524 36.756 74.7154 36.316 75.8374 36.316H77.6524V37.262C77.3444 38.021 76.6954 38.439 75.8154 38.439ZM90.5964 36.008C91.2014 35.788 91.5754 35.348 91.5754 34.699C91.5754 33.742 90.7724 33.214 89.4634 33.214H86.9114V39H89.5404C91.0474 39 91.7734 38.428 91.7734 37.427C91.7734 36.668 91.3994 36.195 90.5964 36.008ZM87.6704 33.83H89.4084C90.2994 33.83 90.7944 34.149 90.7944 34.798C90.7944 35.447 90.2994 35.788 89.4084 35.788H87.6704V33.83ZM89.5074 38.384H87.6704V36.371H89.5844C90.5634 36.371 91.0034 36.69 91.0034 37.383C91.0034 38.076 90.4864 38.384 89.5074 38.384ZM97.7838 39.055C98.7628 39.055 99.5878 38.659 100.05 37.911L99.4668 37.515C99.0708 38.098 98.4548 38.362 97.7838 38.362C96.5188 38.362 95.5948 37.471 95.5948 36.107C95.5948 34.754 96.5188 33.852 97.7838 33.852C98.4548 33.852 99.0708 34.127 99.4668 34.71L100.05 34.314C99.5878 33.555 98.7628 33.17 97.7838 33.17C96.0568 33.17 94.8028 34.38 94.8028 36.107C94.8028 37.834 96.0568 39.055 97.7838 39.055ZM108.296 36.107C108.296 34.369 107.119 33.17 105.491 33.17C103.863 33.17 102.664 34.391 102.664 36.107C102.664 37.823 103.896 39.055 105.7 39.055C106.613 39.055 107.416 38.725 107.933 38.109L107.493 37.603C107.053 38.109 106.426 38.362 105.722 38.362C104.457 38.362 103.533 37.559 103.445 36.349H108.285C108.285 36.261 108.296 36.173 108.296 36.107ZM105.491 33.841C106.624 33.841 107.449 34.633 107.548 35.766H103.445C103.544 34.633 104.369 33.841 105.491 33.841ZM119.405 33.17C118.448 33.17 117.645 33.588 117.172 34.358V33.214H116.424V41.134H117.205V37.911C117.689 38.659 118.481 39.055 119.405 39.055C121.055 39.055 122.287 37.867 122.287 36.107C122.287 34.358 121.055 33.17 119.405 33.17ZM119.35 38.362C118.118 38.362 117.194 37.46 117.194 36.107C117.194 34.765 118.118 33.852 119.35 33.852C120.571 33.852 121.506 34.765 121.506 36.107C121.506 37.46 120.571 38.362 119.35 38.362ZM129.711 33.214L127.533 38.131L125.355 33.214H124.541L127.126 38.989L126.873 39.55C126.543 40.276 126.191 40.518 125.674 40.518C125.256 40.518 124.904 40.364 124.618 40.078L124.255 40.661C124.607 41.013 125.124 41.189 125.663 41.189C126.488 41.189 127.104 40.826 127.588 39.693L130.481 33.214H129.711ZM137.693 39H138.617L136.175 36.019L138.452 33.214H137.605L135.57 35.755H134.239V33.214H133.458V39H134.239V36.426H135.559L137.693 39ZM141.609 39H142.313L146.163 34.402V39H146.944V33.214H146.251L142.39 37.812V33.214H141.609V39ZM150.954 36.69H151.559L151.724 31.3H150.8L150.954 36.69ZM151.262 39.055C151.592 39.055 151.834 38.791 151.834 38.483C151.834 38.164 151.592 37.922 151.262 37.922C150.932 37.922 150.679 38.164 150.679 38.483C150.679 38.791 150.932 39.055 151.262 39.055Z" fill="#1A1A1A"/>
</svg>
