<svg width="251" height="186" viewBox="0 0 251 186" fill="none" xmlns="http://www.w3.org/2000/svg">
<path d="M154.258 186C179.524 178.014 202.131 160.379 221.746 133.095C241.36 105.81 251.001 81.5206 251.001 60.2254C251.001 38.9302 245.682 23.6243 234.711 13.975C223.74 4.65832 210.11 0 193.487 0C176.865 0 162.237 6.65474 150.269 20.297C138.301 33.9392 132.316 48.9123 132.316 65.2165C132.316 81.5206 137.636 94.1646 148.274 103.148C158.912 112.132 167.889 116.791 175.535 116.791C174.87 121.449 171.546 129.102 164.564 139.417C157.915 149.732 149.936 158.716 140.628 165.703C141.293 175.02 145.947 181.674 154.258 186Z" fill="#7797E9" fill-opacity="0.06"/>
<path d="M21.6093 186C38.5642 180.676 54.5219 170.694 69.4821 156.054C84.4424 141.413 96.4106 124.776 105.054 106.476C113.698 88.1753 118.02 70.5403 118.02 53.9034C118.02 37.2665 112.701 23.9571 102.062 14.3077C91.7563 4.65832 78.1258 0 61.1709 0C44.5483 0 29.9205 6.65474 17.9523 20.297C5.98411 33.9392 0 48.9123 0 65.2165C0 81.5206 5.31921 94.1646 15.9576 103.148C26.596 112.132 35.5722 116.791 43.2185 116.791C42.8861 121.449 39.2291 129.102 32.2477 139.417C25.5987 149.732 17.2874 158.716 7.97881 165.703C8.97616 174.687 13.298 181.342 21.6093 186Z" fill="#7797E9" fill-opacity="0.06"/>
</svg>
