<svg width="8" height="7" viewBox="0 0 8 7" fill="none" xmlns="http://www.w3.org/2000/svg">
<g clip-path="url(#clip0)">
<path d="M7.3 5L0.8 5C0.3 5 0 5.3 0 5.7C0 6.1 0.3 6.5 0.8 6.5L7.3 6.5C7.7 6.5 8 6.2 8 5.7C8 5.2 7.7 5 7.3 5Z" fill="#8B93A5"/>
<path d="M5.3 2.5L0.8 2.5C0.3 2.5 0 2.8 0 3.2C0 3.6 0.3 4 0.8 4L5.3 4C5.7 4 6 3.7 6 3.2C6 2.7 5.7 2.5 5.3 2.5Z" fill="#8B93A5"/>
<path d="M3.3 0L0.8 0C0.3 0 0 0.3 0 0.7C0 1.1 0.3 1.5 0.8 1.5L3.3 1.5C3.7 1.5 4 1.2 4 0.7C4 0.2 3.7 0 3.3 0Z" fill="#8B93A5"/>
</g>
<defs>
<clipPath id="clip0">
<rect width="8" height="6.5" fill="white" transform="matrix(1 0 0 -1 0 6.5)"/>
</clipPath>
</defs>
</svg>
